<svg xmlns="http://www.w3.org/2000/svg" width="20.5" height="20.5" viewBox="0 0 20.5 20.5">
  <g id="aplication" transform="translate(-0.25 -0.25)">
    <path id="Path_23" data-name="Path 23" d="M18.051,7.333H9.282A1.949,1.949,0,0,0,7.333,9.282v8.769A1.949,1.949,0,0,0,9.282,20h8.769A1.949,1.949,0,0,0,20,18.051V9.282A1.949,1.949,0,0,0,18.051,7.333Z" fill="none" stroke="#282a4e" stroke-linecap="round" stroke-linejoin="round" stroke-width="1.5"/>
    <path id="Path_24" data-name="Path 24" d="M3.923,13.667H2.949A1.949,1.949,0,0,1,1,11.718V2.949A1.949,1.949,0,0,1,2.949,1h8.769a1.949,1.949,0,0,1,1.949,1.949v.974" fill="none" stroke="#282a4e" stroke-linecap="round" stroke-linejoin="round" stroke-width="1.5"/>
  </g>
</svg>
