<svg width="21" height="21" viewBox="0 0 21 21" fill="none" xmlns="http://www.w3.org/2000/svg">
<path d="M18.051 7.33333H9.28173C8.20548 7.33333 7.33301 8.2058 7.33301 9.28205V18.0513C7.33301 19.1275 8.20548 20 9.28173 20H18.051C19.1272 20 19.9997 19.1275 19.9997 18.0513V9.28205C19.9997 8.2058 19.1272 7.33333 18.051 7.33333Z" stroke="white" stroke-width="1.5" stroke-linecap="round" stroke-linejoin="round"/>
<path d="M3.92308 13.6667H2.94872C2.43189 13.6667 1.93622 13.4614 1.57077 13.0959C1.20531 12.7304 1 12.2348 1 11.7179V2.94872C1 2.43189 1.20531 1.93622 1.57077 1.57077C1.93622 1.20531 2.43189 1 2.94872 1H11.7179C12.2348 1 12.7304 1.20531 13.0959 1.57077C13.4614 1.93622 13.6667 2.43189 13.6667 2.94872V3.92308" stroke="white" stroke-width="1.5" stroke-linecap="round" stroke-linejoin="round"/>
</svg>
