<svg width="20" height="18" viewBox="0 0 20 18" fill="none" xmlns="http://www.w3.org/2000/svg">
<path d="M1 2.6C1 1.91044 1.27111 1.24912 1.75368 0.761522C2.23626 0.273928 2.89077 0 3.57324 0H17.4268C18.1092 0 18.7637 0.273928 19.2463 0.761522C19.7289 1.24912 20 1.91044 20 2.6V13.4C20 14.0896 19.7289 14.7509 19.2463 15.2385C18.7637 15.7261 18.1092 16 17.4268 16H10.8741L9.68646 14.8H17.4268C17.7942 14.8 18.1467 14.6525 18.4065 14.3899C18.6664 14.1274 18.8124 13.7713 18.8124 13.4V2.6C18.8124 2.2287 18.6664 1.8726 18.4065 1.61005C18.1467 1.3475 17.7942 1.2 17.4268 1.2H3.57324C3.20576 1.2 2.85333 1.3475 2.59348 1.61005C2.33363 1.8726 2.18765 2.2287 2.18765 2.6V6.984C1.75218 7.2136 1.35234 7.504 1 7.844V2.6Z" fill="#F8F8F8"/>
<path d="M8.35048 14.4548C9.06191 13.5165 9.39058 12.343 9.27005 11.1716C9.14953 10.0002 8.58881 8.91824 7.70121 8.14438C6.81361 7.37052 5.66533 6.96248 4.48844 7.00272C3.31155 7.04295 2.19382 7.52847 1.36114 8.36114C0.528471 9.19382 0.0429533 10.3115 0.00271622 11.4884C-0.0375209 12.6653 0.370523 13.8136 1.14438 14.7012C1.91824 15.5888 3.0002 16.1495 4.17159 16.2701C5.34299 16.3906 6.51645 16.0619 7.45483 15.3505L9.90266 17.7983C9.96067 17.8606 10.0306 17.9105 10.1084 17.9451C10.1861 17.9798 10.27 17.9984 10.3551 17.9999C10.4402 18.0014 10.5247 17.9858 10.6036 17.9539C10.6825 17.922 10.7542 17.8746 10.8144 17.8144C10.8746 17.7542 10.922 17.6825 10.9539 17.6036C10.9858 17.5247 11.0014 17.4402 10.9999 17.3551C10.9984 17.27 10.9798 17.1861 10.9451 17.1084C10.9105 17.0306 10.8606 16.9607 10.7983 16.9027L8.35048 14.4548ZM8.02687 11.6471C8.02687 12.5434 7.67078 13.4031 7.03694 14.0369C6.40311 14.6708 5.54344 15.0269 4.64706 15.0269C3.75069 15.0269 2.89102 14.6708 2.25718 14.0369C1.62335 13.4031 1.26726 12.5434 1.26726 11.6471C1.26726 10.7507 1.62335 9.89102 2.25718 9.25718C2.89102 8.62335 3.75069 8.26726 4.64706 8.26726C5.54344 8.26726 6.40311 8.62335 7.03694 9.25718C7.67078 9.89102 8.02687 10.7507 8.02687 11.6471Z" fill="#F8F8F8"/>
</svg>
