<svg id="audit-trial" xmlns="http://www.w3.org/2000/svg" width="20" height="18" viewBox="0 0 20 18">
  <path id="Path_25" data-name="Path 25" d="M1,2.6A2.614,2.614,0,0,1,1.754.762,2.56,2.56,0,0,1,3.573,0H17.427a2.56,2.56,0,0,1,1.819.762A2.614,2.614,0,0,1,20,2.6V13.4a2.614,2.614,0,0,1-.754,1.839A2.56,2.56,0,0,1,17.427,16H10.874L9.686,14.8h7.74a1.378,1.378,0,0,0,.98-.41,1.407,1.407,0,0,0,.406-.99V2.6a1.407,1.407,0,0,0-.406-.99,1.378,1.378,0,0,0-.98-.41H3.573a1.378,1.378,0,0,0-.98.41,1.407,1.407,0,0,0-.406.99V6.984A5.213,5.213,0,0,0,1,7.844Z" fill="#282a4e"/>
  <path id="Path_26" data-name="Path 26" d="M8.35,14.455a4.647,4.647,0,1,0-.9.9L9.9,17.8a.634.634,0,1,0,.9-.9Zm-.324-2.808a3.38,3.38,0,1,1-.99-2.39A3.38,3.38,0,0,1,8.027,11.647Z" fill="#282a4e"/>
</svg>
