<svg width="21" height="18" viewBox="0 0 21 18" fill="none" xmlns="http://www.w3.org/2000/svg">
<path d="M8.125 2.58334L8.125 15.25C8.125 16.1245 8.65666 16.8333 9.3125 16.8333L11.6875 16.8333C12.3433 16.8333 12.875 16.1245 12.875 15.25L12.875 2.58334C12.875 1.70889 12.3433 1 11.6875 1L9.3125 1C8.65666 1 8.125 1.70889 8.125 2.58334Z" stroke="white" stroke-width="1.5" stroke-linecap="round" stroke-linejoin="round"/>
<path d="M15.25 6.14584L15.25 15.6458C15.25 16.3017 15.7817 16.8333 16.4375 16.8333L18.8125 16.8333C19.4683 16.8333 20 16.3017 20 15.6458L20 6.14584C20 5.49 19.4683 4.95834 18.8125 4.95834L16.4375 4.95834C15.7817 4.95834 15.25 5.49 15.25 6.14584Z" stroke="white" stroke-width="1.5" stroke-linecap="round" stroke-linejoin="round"/>
<path d="M1 9.70834L1 16.0417C1 16.4789 1.53166 16.8333 2.1875 16.8333L4.5625 16.8333C5.21834 16.8333 5.75 16.4789 5.75 16.0417L5.75 9.70834C5.75 9.27111 5.21834 8.91667 4.5625 8.91667L2.1875 8.91667C1.53166 8.91667 1 9.27111 1 9.70834Z" stroke="white" stroke-width="1.5" stroke-linecap="round" stroke-linejoin="round"/>
</svg>
