<svg width="21" height="18" viewBox="0 0 21 18" fill="none" xmlns="http://www.w3.org/2000/svg">
<path d="M14.8182 16.5455V14.8182C14.8182 13.902 14.4542 13.0233 13.8064 12.3754C13.1585 11.7276 12.2798 11.3636 11.3636 11.3636H4.45455C3.53834 11.3636 2.65967 11.7276 2.01181 12.3754C1.36396 13.0233 1 13.902 1 14.8182V16.5455" stroke="white" stroke-width="1.5" stroke-linecap="round" stroke-linejoin="round"/>
<path d="M7.90865 7.90909C9.81654 7.90909 11.3632 6.36244 11.3632 4.45455C11.3632 2.54665 9.81654 1 7.90865 1C6.00075 1 4.4541 2.54665 4.4541 4.45455C4.4541 6.36244 6.00075 7.90909 7.90865 7.90909Z" stroke="white" stroke-width="1.5" stroke-linecap="round" stroke-linejoin="round"/>
<path d="M20.0001 16.5455V14.8182C19.9995 14.0528 19.7448 13.3092 19.2758 12.7043C18.8069 12.0993 18.1503 11.6673 17.4092 11.4759" stroke="white" stroke-width="1.5" stroke-linecap="round" stroke-linejoin="round"/>
<path d="M13.9541 1.11227C14.6972 1.30253 15.3558 1.7347 15.8262 2.34063C16.2965 2.94657 16.5518 3.69181 16.5518 4.45887C16.5518 5.22592 16.2965 5.97116 15.8262 6.5771C15.3558 7.18303 14.6972 7.6152 13.9541 7.80546" stroke="white" stroke-width="1.5" stroke-linecap="round" stroke-linejoin="round"/>
</svg>
