<svg width="19" height="19" viewBox="0 0 19 19" fill="none" xmlns="http://www.w3.org/2000/svg">
<path d="M17.4818 9.0214C16.8295 7.64724 16.0533 6.52653 15.1531 5.65929L14.2091 6.60335C14.9789 7.33904 15.6495 8.30147 16.2293 9.50011C14.6856 12.6952 12.4943 14.213 9.49953 14.213C8.60061 14.213 7.77264 14.0746 7.01561 13.7977L5.99269 14.8207C7.04412 15.3062 8.21307 15.5489 9.49953 15.5489C13.0657 15.5489 15.7265 13.6916 17.4818 9.97696C17.5523 9.82757 17.5889 9.6644 17.5889 9.49918C17.5889 9.33396 17.5523 9.17079 17.4818 9.0214ZM16.3022 3.07202L15.5112 2.28011C15.4975 2.26631 15.4811 2.25536 15.4631 2.24789C15.445 2.24042 15.4257 2.23657 15.4062 2.23657C15.3867 2.23657 15.3674 2.24042 15.3494 2.24789C15.3314 2.25536 15.315 2.26631 15.3012 2.28011L13.2719 4.30851C12.153 3.73702 10.8956 3.45128 9.49953 3.45128C5.93332 3.45128 3.27257 5.3086 1.5173 9.02325C1.44675 9.17265 1.41016 9.33582 1.41016 9.50103C1.41016 9.66625 1.44675 9.82942 1.5173 9.97882C2.21854 11.4558 3.06278 12.6396 4.05002 13.5304L2.08656 15.4933C2.05874 15.5211 2.04312 15.5588 2.04312 15.5982C2.04312 15.6375 2.05874 15.6753 2.08656 15.7031L2.87866 16.4952C2.90649 16.523 2.94423 16.5387 2.98358 16.5387C3.02294 16.5387 3.06068 16.523 3.08851 16.4952L16.3022 3.28206C16.316 3.26827 16.327 3.2519 16.3345 3.23388C16.3419 3.21586 16.3458 3.19655 16.3458 3.17704C16.3458 3.15753 16.3419 3.13822 16.3345 3.1202C16.327 3.10218 16.316 3.08581 16.3022 3.07202ZM2.76974 9.50011C4.31535 6.30499 6.50666 4.78722 9.49953 4.78722C10.5115 4.78722 11.4316 4.96089 12.2664 5.31398L10.962 6.61838C10.3443 6.28878 9.63694 6.16645 8.94438 6.26945C8.25182 6.37244 7.6107 6.69531 7.11561 7.1904C6.62051 7.6855 6.29765 8.32662 6.19465 9.01918C6.09166 9.71174 6.21398 10.4191 6.54358 11.0368L4.99575 12.5846C4.13908 11.8285 3.4006 10.8041 2.76974 9.50011ZM7.34718 9.50011C7.34751 9.17292 7.42501 8.85043 7.57338 8.55882C7.72176 8.26721 7.93683 8.01472 8.20113 7.82185C8.46542 7.62898 8.77149 7.50118 9.09445 7.44882C9.41742 7.39646 9.74819 7.42102 10.0599 7.52051L7.44571 10.1347C7.38019 9.92954 7.34695 9.71546 7.34718 9.50011Z" fill="#333333"/>
<path d="M9.4261 11.5782C9.3619 11.5782 9.29863 11.5752 9.23592 11.5695L8.25586 12.5495C8.84532 12.7753 9.48756 12.8255 10.1049 12.694C10.7223 12.5625 11.2884 12.255 11.7347 11.8087C12.181 11.3623 12.4885 10.7963 12.62 10.1789C12.7515 9.56153 12.7013 8.9193 12.4756 8.32983L11.4955 9.30989C11.5013 9.37261 11.5042 9.43588 11.5042 9.50008C11.5044 9.77302 11.4507 10.0433 11.3463 10.2955C11.242 10.5477 11.0889 10.7769 10.8959 10.9699C10.7029 11.1629 10.4737 11.3159 10.2215 11.4203C9.96935 11.5247 9.69905 11.5783 9.4261 11.5782Z" fill="#333333"/>
</svg>
