<svg width="129" height="20" viewBox="0 0 129 20" fill="none" xmlns="http://www.w3.org/2000/svg">
<path d="M3.57063 1.4V9.86C3.57063 10.9933 3.84396 11.82 4.39062 12.34C4.93729 12.8467 5.64396 13.1 6.51063 13.1C7.39063 13.1 8.09729 12.8333 8.63063 12.3C9.17729 11.7667 9.45063 10.9533 9.45063 9.86V1.4H12.0706V10.06C12.0706 11.5267 11.564 12.7533 10.5506 13.74C9.55063 14.7267 8.19063 15.22 6.47063 15.22C4.77729 15.22 3.43063 14.7267 2.43063 13.74C1.44396 12.7533 0.950625 11.5267 0.950625 10.06V1.4H3.57063ZM19.3284 13.02C20.2218 13.02 20.8484 12.7 21.2084 12.06C21.5684 11.4067 21.7484 10.7467 21.7484 10.08C21.7484 9.32 21.5884 8.64 21.2684 8.04C20.9484 7.44 20.3018 7.14 19.3284 7.14C19.0484 7.14 18.7551 7.19333 18.4484 7.3C18.1551 7.39333 17.8751 7.52667 17.6084 7.7V12.46C17.8751 12.62 18.1551 12.7533 18.4484 12.86C18.7551 12.9667 19.0484 13.02 19.3284 13.02ZM15.0284 5.3H16.3484L16.9084 6.02C17.3484 5.68667 17.8618 5.42 18.4484 5.22C19.0351 5.02 19.5551 4.92 20.0084 4.92C21.4351 4.92 22.5284 5.41333 23.2884 6.4C24.0484 7.38667 24.4284 8.61333 24.4284 10.08C24.4284 11.5467 24.0351 12.7733 23.2484 13.76C22.4751 14.7467 21.3951 15.24 20.0084 15.24C19.6618 15.24 19.2684 15.18 18.8284 15.06C18.4018 14.94 17.9951 14.7733 17.6084 14.56V19.18L15.0284 19.38V5.3ZM32.5095 14.8C32.2962 14.9733 31.9895 15.1133 31.5895 15.22C31.2029 15.34 30.8562 15.4 30.5495 15.4C29.3495 15.4 28.4029 15.1 27.7095 14.5C27.0295 13.8867 26.6895 13.02 26.6895 11.9V7.32H25.3895V5.32H26.6895V3.02L29.2695 2.56V5.32H31.0295L31.8295 7.32H29.2695V11.44C29.2695 11.9467 29.3895 12.3667 29.6295 12.7C29.8695 13.02 30.2229 13.18 30.6895 13.18C30.8629 13.18 31.0362 13.16 31.2095 13.12C31.3829 13.08 31.5629 13.0133 31.7495 12.92L32.5095 14.8ZM35.2509 0.999999C35.6643 0.999999 36.0109 1.14 36.2909 1.42C36.5843 1.7 36.7309 2.04667 36.7309 2.46C36.7309 2.87333 36.5843 3.22 36.2909 3.5C36.0109 3.78 35.6643 3.92 35.2509 3.92C34.8509 3.92 34.5109 3.78 34.2309 3.5C33.9509 3.22 33.8109 2.87333 33.8109 2.46C33.8109 2.04667 33.9509 1.7 34.2309 1.42C34.5109 1.14 34.8509 0.999999 35.2509 0.999999ZM36.5509 5.3V15H33.9509V5.3H36.5509ZM47.4081 6.44C47.8215 5.97333 48.3681 5.60667 49.0481 5.34C49.7415 5.06 50.3615 4.92 50.9081 4.92C52.2281 4.92 53.1615 5.30667 53.7081 6.08C54.2681 6.85333 54.5481 7.8 54.5481 8.92V15H51.9281V9.04C51.9281 8.42667 51.7815 7.96 51.4881 7.64C51.1948 7.30667 50.7681 7.14 50.2081 7.14C49.8348 7.14 49.4415 7.24 49.0281 7.44C48.6148 7.64 48.2415 7.86667 47.9081 8.12C47.9215 8.25333 47.9348 8.38667 47.9481 8.52C47.9615 8.65333 47.9681 8.78667 47.9681 8.92V15H45.3481V9.04C45.3481 8.42667 45.2015 7.96 44.9081 7.64C44.6148 7.30667 44.1948 7.14 43.6481 7.14C43.3148 7.14 42.9748 7.21333 42.6281 7.36C42.2948 7.49333 41.9748 7.66667 41.6681 7.88V15H39.0681V5.3H40.4281L41.0681 6.18C41.5081 5.78 42.0348 5.47333 42.6481 5.26C43.2748 5.03333 43.8348 4.92 44.3281 4.92C45.0881 4.92 45.7215 5.06 46.2281 5.34C46.7348 5.60667 47.1281 5.97333 47.4081 6.44ZM61.9397 15.24C60.2597 15.24 58.933 14.78 57.9597 13.86C56.9997 12.94 56.5197 11.7067 56.5197 10.16C56.5197 8.61333 56.953 7.37333 57.8197 6.44C58.6997 5.50667 59.893 5.04 61.3997 5.04C62.9197 5.04 64.033 5.54667 64.7397 6.56C65.4597 7.56 65.8197 8.74667 65.8197 10.12V10.92H59.2797C59.3997 11.56 59.693 12.0733 60.1597 12.46C60.6264 12.8333 61.2397 13.02 61.9997 13.02C62.4397 13.02 62.833 12.9667 63.1797 12.86C63.5397 12.74 63.953 12.5733 64.4197 12.36L65.1797 14.24C64.7264 14.5867 64.173 14.84 63.5197 15C62.8797 15.16 62.353 15.24 61.9397 15.24ZM63.3597 9.18C63.2264 8.52667 62.9864 8.04667 62.6397 7.74C62.293 7.42 61.8597 7.26 61.3397 7.26C60.8064 7.26 60.3597 7.42667 59.9997 7.76C59.6397 8.08 59.4064 8.55333 59.2997 9.18H63.3597ZM70.5381 0.879999V8.84L74.6981 5.02L76.1581 6.86L73.4381 9.24L76.9981 15H74.0181L71.5781 10.9L70.5381 11.82V15H67.9581V1.1L70.5381 0.879999ZM83.385 15.24C81.705 15.24 80.3783 14.78 79.405 13.86C78.445 12.94 77.965 11.7067 77.965 10.16C77.965 8.61333 78.3983 7.37333 79.265 6.44C80.145 5.50667 81.3383 5.04 82.845 5.04C84.365 5.04 85.4783 5.54667 86.185 6.56C86.905 7.56 87.265 8.74667 87.265 10.12V10.92H80.725C80.845 11.56 81.1383 12.0733 81.605 12.46C82.0717 12.8333 82.685 13.02 83.445 13.02C83.885 13.02 84.2783 12.9667 84.625 12.86C84.985 12.74 85.3983 12.5733 85.865 12.36L86.625 14.24C86.1717 14.5867 85.6183 14.84 84.965 15C84.325 15.16 83.7983 15.24 83.385 15.24ZM84.805 9.18C84.6717 8.52667 84.4317 8.04667 84.085 7.74C83.7383 7.42 83.305 7.26 82.785 7.26C82.2517 7.26 81.805 7.42667 81.445 7.76C81.085 8.08 80.8517 8.55333 80.745 9.18H84.805ZM94.2834 15.24C92.6034 15.24 91.2768 14.78 90.3034 13.86C89.3434 12.94 88.8634 11.7067 88.8634 10.16C88.8634 8.61333 89.2968 7.37333 90.1634 6.44C91.0434 5.50667 92.2368 5.04 93.7434 5.04C95.2634 5.04 96.3768 5.54667 97.0834 6.56C97.8034 7.56 98.1634 8.74667 98.1634 10.12V10.92H91.6234C91.7434 11.56 92.0368 12.0733 92.5034 12.46C92.9701 12.8333 93.5834 13.02 94.3434 13.02C94.7834 13.02 95.1768 12.9667 95.5234 12.86C95.8834 12.74 96.2968 12.5733 96.7634 12.36L97.5234 14.24C97.0701 14.5867 96.5168 14.84 95.8634 15C95.2234 15.16 94.6968 15.24 94.2834 15.24ZM95.7034 9.18C95.5701 8.52667 95.3301 8.04667 94.9834 7.74C94.6368 7.42 94.2034 7.26 93.6834 7.26C93.1501 7.26 92.7034 7.42667 92.3434 7.76C91.9834 8.08 91.7501 8.55333 91.6434 9.18H95.7034ZM104.602 13.02C105.495 13.02 106.122 12.7 106.482 12.06C106.842 11.4067 107.022 10.7467 107.022 10.08C107.022 9.32 106.862 8.64 106.542 8.04C106.222 7.44 105.575 7.14 104.602 7.14C104.322 7.14 104.029 7.19333 103.722 7.3C103.429 7.39333 103.149 7.52667 102.882 7.7V12.46C103.149 12.62 103.429 12.7533 103.722 12.86C104.029 12.9667 104.322 13.02 104.602 13.02ZM100.302 5.3H101.622L102.182 6.02C102.622 5.68667 103.135 5.42 103.722 5.22C104.309 5.02 104.829 4.92 105.282 4.92C106.709 4.92 107.802 5.41333 108.562 6.4C109.322 7.38667 109.702 8.61333 109.702 10.08C109.702 11.5467 109.309 12.7733 108.522 13.76C107.749 14.7467 106.669 15.24 105.282 15.24C104.935 15.24 104.542 15.18 104.102 15.06C103.675 14.94 103.269 14.7733 102.882 14.56V19.18L100.302 19.38V5.3ZM116.803 15.24C115.123 15.24 113.796 14.78 112.823 13.86C111.863 12.94 111.383 11.7067 111.383 10.16C111.383 8.61333 111.816 7.37333 112.683 6.44C113.563 5.50667 114.756 5.04 116.263 5.04C117.783 5.04 118.896 5.54667 119.603 6.56C120.323 7.56 120.683 8.74667 120.683 10.12V10.92H114.143C114.263 11.56 114.556 12.0733 115.023 12.46C115.49 12.8333 116.103 13.02 116.863 13.02C117.303 13.02 117.696 12.9667 118.043 12.86C118.403 12.74 118.816 12.5733 119.283 12.36L120.043 14.24C119.59 14.5867 119.036 14.84 118.383 15C117.743 15.16 117.216 15.24 116.803 15.24ZM118.223 9.18C118.09 8.52667 117.85 8.04667 117.503 7.74C117.156 7.42 116.723 7.26 116.203 7.26C115.67 7.26 115.223 7.42667 114.863 7.76C114.503 8.08 114.27 8.55333 114.163 9.18H118.223ZM128.001 5.3L128.521 7.38C128.081 7.38 127.568 7.50667 126.981 7.76C126.408 8.01333 125.841 8.38667 125.281 8.88V15H122.681V5.3H124.041L124.901 6.72C125.301 6.37333 125.788 6.05333 126.361 5.76C126.935 5.45333 127.481 5.3 128.001 5.3Z" fill="white"/>
</svg>
